<svg t="1582788085339" class="icon" viewBox="0 0 1024 1024" version="1.1" xmlns="http://www.w3.org/2000/svg" p-id="26703" width="200" height="200"><path d="M512 0C230.4 0 0 230.4 0 512s230.4 512 512 512 512-230.4 512-512S793.6 0 512 0z m209.92 686.08c10.24 10.24 10.24 25.6 0 35.84-10.24 10.24-25.6 10.24-35.84 0l-163.84-163.84L358.4 721.92c-10.24 10.24-25.6 10.24-35.84 0-10.24-10.24-10.24-25.6 0-35.84l163.84-163.84L322.56 358.4c-10.24-10.24-10.24-25.6 0-35.84 10.24-10.24 25.6-10.24 35.84 0l163.84 163.84 163.84-163.84c10.24-10.24 25.6-10.24 35.84 0 10.24 10.24 10.24 25.6 0 35.84l-163.84 163.84 163.84 163.84z" p-id="26704"></path></svg>
