<svg t="1581562077184" class="icon" viewBox="0 0 1024 1024" version="1.1" xmlns="http://www.w3.org/2000/svg" p-id="7367" width="200" height="200"><path d="M569.6 505.6l288 288c12.8 12.8 12.8 38.4 0 51.2-12.8 12.8-38.4 12.8-51.2 0L518.4 563.2l-294.4 294.4c-12.8 12.8-38.4 12.8-51.2 0-12.8-12.8-12.8-38.4 0-51.2L467.2 512 172.8 217.6c-12.8-12.8-12.8-38.4 0-51.2 12.8-12.8 38.4-12.8 51.2 0L512 454.4l281.6-281.6c12.8-12.8 38.4-12.8 51.2 0 12.8 12.8 12.8 38.4 0 51.2L569.6 505.6z" fill="#666666" p-id="7368"></path></svg>
