
<?xml version="1.0" standalone="no"?><!DOCTYPE svg PUBLIC "-//W3C//DTD SVG 1.1//EN" "http://www.w3.org/Graphics/SVG/1.1/DTD/svg11.dtd"><svg t="1551704422873" class="icon" style="" viewBox="0 0 1024 1024" version="1.1" xmlns="http://www.w3.org/2000/svg" p-id="1180" xmlns:xlink="http://www.w3.org/1999/xlink" width="200" height="200"><defs><style type="text/css"></style></defs><path d="M514.048 780.117333c-132.608 0-231.594667-58.368-278.698667-93.184C162.304 633.002667 116.906667 566.613333 116.906667 513.706667s45.397333-119.296 118.442666-173.226667c47.274667-34.816 146.261333-93.184 278.698667-93.184 98.645333 0 197.632 32.597333 278.698667 91.989333C865.962667 392.704 911.36 459.605333 911.36 513.706667s-45.397333 121.002667-118.613333 174.421333C711.68 747.52 612.693333 780.117333 514.048 780.117333z m0-495.274666c-121.856 0-212.992 53.76-256.512 85.845333-61.781333 45.568-103.253333 102.912-103.253333 143.018667s41.472 97.450667 103.253333 143.018666c43.52 32.085333 134.656 85.845333 256.512 85.845334 122.368 0 213.333333-53.077333 256.512-84.821334 62.634667-45.909333 103.082667-102.4 103.082667-144.213333s-40.448-98.304-103.082667-144.213333c-43.178667-31.402667-134.144-84.48-256.512-84.48z" p-id="1181"></path><path d="M517.461333 684.714667C423.253333 684.714667 346.453333 608.085333 346.453333 513.706667s76.8-171.008 171.008-171.008c94.378667 0 171.008 76.8 171.008 171.008s-76.629333 171.008-171.008 171.008z m0-304.469334c-73.557333 0-133.461333 59.904-133.461333 133.461334s59.904 133.461333 133.461333 133.461333 133.461333-59.904 133.461334-133.461333-59.733333-133.461333-133.461334-133.461334z" p-id="1182"></path></svg>

