
<?xml version="1.0" standalone="no"?><!DOCTYPE svg PUBLIC "-//W3C//DTD SVG 1.1//EN" "http://www.w3.org/Graphics/SVG/1.1/DTD/svg11.dtd"><svg t="1551670270122" class="icon" style="" viewBox="0 0 1024 1024" version="1.1" xmlns="http://www.w3.org/2000/svg" p-id="1180" xmlns:xlink="http://www.w3.org/1999/xlink" width="200" height="200"><defs><style type="text/css"></style></defs><path d="M288.077108 455.001446c-17.025542 0-30.843373-13.817831-30.843373-30.843374V227.377349c0-121.646265 105.114217-220.715181 234.409638-220.71518h40.713254c129.295422 0 234.409639 99.068916 234.409638 220.71518 0 17.025542-13.817831 30.843373-30.843373 30.843374s-30.843373-13.817831-30.843374-30.843374c0-41.823614-17.765783-81.426506-49.966265-111.529638-32.817349-30.72-76.491566-47.498795-122.756626-47.498795h-40.713254C445.378313 68.348916 401.704096 85.127711 368.886747 115.847711c-32.200482 30.103133-49.966265 69.706024-49.966265 111.529638v196.780723c0 17.025542-13.817831 30.843373-30.843374 30.843374z" fill="#46B6EE" p-id="1181"></path><path d="M891.620241 1019.558554H132.379759c-38.615904 0-69.952771-31.460241-69.952771-69.952771V463.26747c0-38.615904 31.460241-69.952771 69.952771-69.952771h759.117108c38.615904 0 69.952771 31.460241 69.952772 69.952771v486.338313c0.123373 38.49253-31.213494 69.952771-69.829398 69.952771zM132.379759 455.001446c-4.564819 0-8.266024 3.824578-8.266024 8.266024v486.338313c0 4.564819 3.824578 8.266024 8.266024 8.266024h759.117108c4.564819 0 8.266024-3.824578 8.266025-8.266024V463.26747c0-4.564819-3.824578-8.266024-8.266025-8.266024H132.379759z" fill="#46B6EE" p-id="1182"></path><path d="M512 634.139759m-89.32241 0a89.32241 89.32241 0 1 0 178.64482 0 89.32241 89.32241 0 1 0-178.64482 0Z" fill="#46B6EE" p-id="1183"></path><path d="M512 877.679036c-17.025542 0-30.843373-13.817831-30.843373-30.843373V634.139759c0-17.025542 13.817831-30.843373 30.843373-30.843373s30.843373 13.817831 30.843373 30.843373v212.695904c0 17.025542-13.817831 30.843373-30.843373 30.843373z" fill="#46B6EE" p-id="1184"></path></svg>

