
<?xml version="1.0" standalone="no"?><!DOCTYPE svg PUBLIC "-//W3C//DTD SVG 1.1//EN" "http://www.w3.org/Graphics/SVG/1.1/DTD/svg11.dtd"><svg t="1551670252288" class="icon" style="" viewBox="0 0 1024 1024" version="1.1" xmlns="http://www.w3.org/2000/svg" p-id="1068" xmlns:xlink="http://www.w3.org/1999/xlink" width="200" height="200"><defs><style type="text/css"></style></defs><path d="M764.668916 425.391807h-61.686747V228.611084c0-41.823614-17.765783-81.426506-49.966265-111.529638-32.817349-30.596627-76.368193-47.498795-122.756627-47.498795h-40.713253c-46.26506 0-89.939277 16.902169-122.756626 47.498795-32.200482 30.103133-49.966265 69.706024-49.966265 111.529638v196.780723h-61.686747V228.611084c0-121.646265 105.114217-220.715181 234.409638-220.71518h40.713253c129.295422 0 234.409639 99.068916 234.409639 220.71518v196.780723z" fill="#CCCCCC" p-id="1069"></path><path d="M889.522892 1020.792289H130.28241c-38.615904 0-69.952771-31.460241-69.952771-69.952771V464.501205c0-38.615904 31.460241-69.952771 69.952771-69.952771H889.522892c38.615904 0 69.952771 31.460241 69.952771 69.952771v486.338313c0 38.49253-31.336867 69.952771-69.952771 69.952771zM130.28241 456.235181c-4.564819 0-8.266024 3.824578-8.266024 8.266024v486.338313c0 4.564819 3.824578 8.266024 8.266024 8.266024H889.522892c4.564819 0 8.266024-3.824578 8.266024-8.266024V464.501205c0-4.564819-3.824578-8.266024-8.266024-8.266024H130.28241z" fill="#CCCCCC" p-id="1070"></path><path d="M475.766042 717.871119a89.32241 89.32241 0 1 0 68.364413-165.046293 89.32241 89.32241 0 1 0-68.364413 165.046293Z" fill="#CCCCCC" p-id="1071"></path><path d="M509.902651 878.912771c-17.025542 0-30.843373-13.817831-30.843374-30.843373V635.373494c0-17.025542 13.817831-30.843373 30.843374-30.843374s30.843373 13.817831 30.843373 30.843374v212.695904c0 17.025542-13.817831 30.843373-30.843373 30.843373z" fill="#CCCCCC" p-id="1072"></path></svg>

