<?xml version="1.0" standalone="no"?><!DOCTYPE svg PUBLIC "-//W3C//DTD SVG 1.1//EN" "http://www.w3.org/Graphics/SVG/1.1/DTD/svg11.dtd"><svg t="1547535954016" class="icon" style="" viewBox="0 0 1024 1024" version="1.1" xmlns="http://www.w3.org/2000/svg" p-id="1079" xmlns:xlink="http://www.w3.org/1999/xlink" width="200" height="200"><defs><style type="text/css"></style></defs><path d="M953.344 459.946667c-3.413333-29.525333-25.770667-53.418667-54.954667-59.050667-35.328-6.656-67.754667-28.16-87.210666-61.781333-19.456-33.621333-21.845333-72.362667-9.898667-106.496 9.898667-27.989333 0.170667-59.221333-23.552-76.970667-27.648-20.48-57.856-37.888-89.941333-51.882667-27.306667-11.776-59.221333-4.608-78.677334 18.090667-23.381333 27.306667-58.197333 44.714667-97.109333 44.714667s-73.728-17.408-97.109333-44.714667C395.434667 99.157333 363.52 91.989333 336.213333 103.765333c-32.085333 13.824-62.293333 31.402667-89.941333 52.053334-23.722667 17.749333-33.28 48.981333-23.552 76.970666 11.946667 33.962667 9.557333 72.704-9.898667 106.496-19.456 33.621333-51.882667 55.125333-87.210666 61.781334-29.184 5.461333-51.541333 29.354667-54.954667 59.050666-2.048 17.066667-3.072 34.474667-3.072 52.053334s1.024 34.986667 3.072 52.053333c3.413333 29.525333 25.770667 53.418667 54.954667 59.050667 35.328 6.656 67.754667 28.16 87.210666 61.781333 19.456 33.621333 21.845333 72.362667 9.898667 106.496-9.898667 27.989333-0.170667 59.221333 23.552 76.970667 27.648 20.650667 57.856 38.229333 89.941333 52.053333 27.306667 11.776 59.221333 4.608 78.677334-18.090667 23.381333-27.306667 58.197333-44.714667 97.109333-44.714666s73.728 17.408 97.109333 44.714666c19.456 22.698667 51.370667 29.866667 78.677334 18.090667 32.085333-13.824 62.293333-31.402667 89.941333-52.053333 23.722667-17.749333 33.28-48.981333 23.552-76.970667-11.946667-33.962667-9.557333-72.704 9.898667-106.496 19.456-33.621333 51.882667-55.125333 87.210666-61.781333 29.184-5.461333 51.541333-29.354667 54.954667-59.050667 2.048-17.066667 3.072-34.474667 3.072-52.053333s-1.024-35.157333-3.072-52.224zM512 655.018667c-79.018667 0-143.018667-64-143.018667-143.018667s64-143.018667 143.018667-143.018667 143.018667 64 143.018667 143.018667-64 143.018667-143.018667 143.018667z" p-id="1080"></path></svg>
