<svg t="1572943597364" class="icon" viewBox="0 0 1024 1024" version="1.1" xmlns="http://www.w3.org/2000/svg" p-id="3421" width="32" height="32"><path d="M512 987.428571c263.314286 0 475.428571-212.114286 475.428571-475.428571S775.314286 36.571429 512 36.571429 36.571429 248.685714 36.571429 512s212.114286 475.428571 475.428571 475.428571z m0-73.142857C292.571429 914.285714 109.714286 731.428571 109.714286 512S292.571429 109.714286 512 109.714286 914.285714 292.571429 914.285714 512 731.428571 914.285714 512 914.285714z" fill="#666666" p-id="3422"></path><path d="M512 219.428571c29.257143 0 58.514286 21.942857 58.514286 58.514286v256c-7.314286 29.257143-29.257143 51.2-58.514286 51.2s-58.514286-21.942857-58.514286-58.514286V277.942857c0-36.571429 29.257143-58.514286 58.514286-58.514286zM512 658.285714c29.257143 0 58.514286 21.942857 58.514286 58.514286 0 29.257143-21.942857 58.514286-58.514286 58.514286-29.257143 0-58.514286-21.942857-58.514286-58.514286S482.742857 658.285714 512 658.285714z" fill="#666666" p-id="3423"></path></svg>
