<svg t="1581579040668" class="icon" viewBox="0 0 1024 1024" version="1.1" xmlns="http://www.w3.org/2000/svg" p-id="9034" width="200" height="200"><path d="M512 1024A512 512 0 1 1 512 0a512 512 0 0 1 0 1024z m23.04-832c-66.304 0-118.272 18.816-156.8 56.448-39.424 37.632-58.24 89.6-58.24 155.904h102.144c0-37.632 7.168-67.2 22.4-87.808 17.024-25.088 44.8-36.736 84.224-36.736 30.464 0 54.656 8.064 71.68 25.088 16.128 17.024 25.088 40.32 25.088 69.888 0 22.4-8.064 43.904-24.192 63.616l-10.752 12.544c-58.24 51.968-93.184 89.6-104.832 113.792-12.544 24.192-17.92 53.76-17.92 87.808v12.544h103.04v-12.544c0-21.504 4.48-40.32 13.44-58.24a138.88 138.88 0 0 1 35.84-44.8c43.008-37.632 68.992-61.824 77.056-70.784 21.504-28.672 33.152-65.408 33.152-110.208 0-54.656-17.92-97.664-53.76-129.024C640.768 207.232 593.28 192 535.04 192z m-16.128 516.992c-19.712 0-35.84 6.272-49.28 18.816-13.44 12.544-19.712 28.672-19.712 48.384s6.272 35.84 19.712 48.384c13.44 12.544 29.568 19.712 49.28 19.712s35.84-6.272 49.28-18.816c13.44-12.544 20.608-29.568 20.608-49.28s-7.168-35.84-19.712-48.384a71.232 71.232 0 0 0-50.176-18.816z" p-id="9035"></path></svg>
